<svg id="Layer_1" data-name="Layer 1" xmlns="http://www.w3.org/2000/svg" viewBox="0 0 430.92 277.75"><defs><style>.cls-1{fill:#0060a9}.cls-2{fill:#ef3e42}</style></defs><title>ideas-that-work-logo</title><path class="cls-1" d="M104.27 192.68c-6.18 0-7.76-2.86-7.76-9.44v-12h-4.33v-.54l8.88-9.78h.56v5.9h7.93v4.39h-7.93v11.64c0 3.6.39 5 3.71 5a8.36 8.36 0 0 0 4.39-1.24v4.78a11 11 0 0 1-5.45 1.29zm9.67-38.91H119v16.14c2.47-2.37 4.89-3.49 7.82-3.49 5.51 0 8.94 3.37 8.94 8.94v16.81h-5.11v-15.52c0-4.1-1.63-6-5.29-6a7.42 7.42 0 0 0-6.36 3.25v18.27h-5.06v-38.4zM154.47 187a8.43 8.43 0 0 1-5.17 1.91c-2.42 0-3.82-1.18-3.82-3.26 0-2.7 3-4.21 9-6.07V187zm.17 3.09c.17 1.8 1.12 2.53 3 2.53a8.6 8.6 0 0 0 5.68-2.31v-3.09c-1.07.84-1.8 1.41-2.64 1.41s-1-.84-1-2.47v-10.74c0-6.24-2.64-9.11-9.33-9.11a14.92 14.92 0 0 0-9.5 3.21v5c3-2.36 6.07-3.54 8.88-3.54 3.37 0 4.78 1.24 4.78 4.27a7.11 7.11 0 0 1-.06 1.07l-6 2c-5.57 1.86-8.38 4.55-8.38 8.15s2.58 6.13 7.25 6.13a11.91 11.91 0 0 0 7.32-2.51zm20.24 2.59c-6.18 0-7.76-2.86-7.76-9.44v-12h-4.33v-.54l8.88-9.78h.56v5.9h7.93v4.39h-7.93v11.64c0 3.6.39 5 3.71 5a8.35 8.35 0 0 0 4.39-1.24v4.78a11 11 0 0 1-5.45 1.29z"/><path class="cls-2" d="M204.93 169.52a1.66 1.66 0 0 1 .3-2.43c2.73.2 7.29.3 10.43.3 2.84 0 8-.1 11.55-.3.91.3.81 1.72.2 2.43l-2.33.2c-2.13.2-3.34.81-3.34 1.73 0 1.21 2.13 6.38 5.27 13.57 5.67 12.66 11.66 25.32 17.53 37.78 2.43-5.06 5.07-10.74 7.8-16.41a26 26 0 0 0 1.62-4.16 8.69 8.69 0 0 0-.81-2.63c-3.54-8.1-7.29-16.21-11.14-24.31-1.52-3.14-3-5.27-6.48-5.57l-2.43-.2a1.56 1.56 0 0 1 .2-2.43c2.94.2 6.79.3 10.84.3 5.07 0 8.82-.1 11.14-.3.71.3.81 1.62.2 2.43l-2.63.2c-4 .31-4.15 1-2.13 5.57 2 5 5 11.35 7.8 17.63 1.93-4 3.75-7.8 6-13.27 3.64-8.61 3.14-9.72-.11-9.93l-3-.2c-.71-1-.51-2.13.2-2.43 2.73.2 5.77.3 9.52.3 3.34 0 7.39-.1 9.72-.3.71.3.81 1.62.2 2.43l-2.93.2c-4.26.31-6.08 4.87-8.31 9-2.13 3.75-6.38 12.56-7.91 16.11a8.3 8.3 0 0 0-.91 2.43 7.61 7.61 0 0 0 .71 2.43c3.45 7.8 7 15.4 10.34 23.09 3.14-7.09 6.08-14.18 9.12-21.37 1.93-4.86 7.4-18.33 8.11-20.16 1.32-3.65 3-8 3-9.21 0-1.42-1.21-2.23-3.34-2.33l-2.94-.2c-.81-.91-.71-2 .1-2.43 3.85.2 6.59.3 9.73.3 3.85 0 6.79-.1 9.42-.3.81.3.91 1.62.2 2.43l-1.93.2c-5.07.51-6 3.55-12.06 17.63l-7.4 17.12c-4.36 10.33-8.51 20.26-12.66 31.09a2.15 2.15 0 0 1-1.22.3 3.18 3.18 0 0 1-1.41-.3c-3.24-9-9.12-21.68-12.26-28.77-3.65 7.39-9.73 20.36-12.67 28.77a2.14 2.14 0 0 1-1.22.3 4 4 0 0 1-1.52-.3c-1.73-4.25-5.68-13.37-7-16.31-6.49-14.08-12.77-28.16-19.35-42.24-1.93-4.15-3.14-6.89-7.4-7.29zm126.25 45.99c0 7.8-2.74 17.12-11.65 17.12s-13.07-9.93-13.07-19.15c0-11.14 5-17.52 11.65-17.52 9.62.04 13.07 10.94 13.07 19.55zm-11.86-22.59c-12 0-21.58 9.11-21.58 21.88s9.12 20.87 20.77 20.87c12.67 0 21.38-9.11 21.38-21.78 0-12.46-9.22-20.97-20.57-20.97zm33.87 12.25c0-4 0-4.46-2.73-6.28l-.91-.61a1.39 1.39 0 0 1 .1-1.82 78.68 78.68 0 0 0 10.23-5 .78.78 0 0 1 .81.71v5.87a1 1 0 0 0 .31.92c3.55-2.94 7.4-6.08 11.15-6.08 2.53 0 4.56 1.62 4.56 4.05a4.5 4.5 0 0 1-4.36 4.66 3.89 3.89 0 0 1-2.23-.71 8.3 8.3 0 0 0-4.46-1.62 4.5 4.5 0 0 0-3.65 2c-1 1.42-1.32 4.35-1.32 7.8v13.78c0 7.29.21 8.5 4.05 8.81l3.65.3a1.77 1.77 0 0 1-.2 2.53c-4.76-.2-7.7-.3-11.25-.3s-6.68.1-9.32.3a1.77 1.77 0 0 1-.2-2.53l1.93-.3c3.75-.61 3.85-1.52 3.85-8.81v-17.67zm35.91-28.05c0-6-.1-6.58-3.14-8.41l-1-.61a1.54 1.54 0 0 1 0-2 72.5 72.5 0 0 0 10.94-4.25 1.12 1.12 0 0 1 1 .61c-.1 3-.3 8.1-.3 12.56v34.74c0 1.32.1 1.52 1.82 1.52 2.23 0 4.16-1.12 6.89-4l4.16-4.46c2.84-3 3.54-4.15 3.54-4.66s-.51-.81-2.22-1l-2.43-.3a1.51 1.51 0 0 1 0-2.53h2.33a159.93 159.93 0 0 0 16.11-.81c.71.3.81 2 .2 2.53l-3.25.61c-2 .4-3.75 1.41-6.38 3.54-4 3.14-7.4 6.79-9.22 8.51-1.22 1.11-1.32 1.62-.71 2.43 1.73 2.33 3.35 4.25 6.79 8.1 4 4.46 7.5 8.41 9.52 10.33a10.24 10.24 0 0 0 5.27 2.23l1.42.2c.71.51.61 2.23-.2 2.53-2.94-.2-6.38-.3-9.62-.3-4.05 0-7.6.1-10.54.3a1.7 1.7 0 0 1-.2-2.53l1.82-.3c1.52-.2 2.54-.4 2.54-1s-.41-1.32-1.73-2.83l-10.84-12.56a4.1 4.1 0 0 0-3.14-1.42c-1.82 0-1.93.31-1.93 3.45v5.57c0 7.29.2 8.3 3.85 8.81l2.43.3a1.76 1.76 0 0 1-.2 2.53c-3.34-.2-6.28-.3-9.83-.3s-6.69.1-9.72.3A1.68 1.68 0 0 1 383 232l2.23-.3c3.75-.51 3.85-1.52 3.85-8.81v-45.77zM128.92 99.69c0-9.8-.19-11.38-5.64-11.84l-2.28-.18a1.82 1.82 0 0 1 .19-2.31c4.62.18 7.77.28 11.65.28 3.7 0 6.84-.09 11.47-.28a1.82 1.82 0 0 1 .19 2.31l-2.31.18c-5.46.46-5.64 2-5.64 11.84v32.93c0 9.81.19 11.1 5.64 11.75l2.31.27a1.82 1.82 0 0 1-.19 2.31c-4.62-.19-7.77-.28-11.47-.28-3.88 0-7 .09-11.65.28a1.8 1.8 0 0 1-.19-2.31l2.31-.27c5.46-.65 5.64-1.94 5.64-11.75V99.69zm38.84-3.14c0-4.16.19-6.47.93-7s3.7-1.3 9.15-1.3c24.23 0 29.14 17.2 29.14 27.38 0 17.2-8 28.95-26 28.95-5.83 0-9.34-.93-11.38-3.79-1.57-2.22-1.85-5.18-1.85-10.08V96.55zm-7.58 36.26c0 9.71-.19 10.82-5.55 11.56l-2.13.27a1.8 1.8 0 0 0 .18 2.31c4.35-.19 7.68-.28 11.56-.28 3.24 0 9.16.74 15.08.74 7.12 0 14.7-1.21 20.72-4.44 10.54-5.73 16.19-15.81 16.19-27.56 0-12.21-6.29-22.75-18.78-27.28-6-2.22-12.58-2.77-20.35-2.77s-15.35.28-23.21.74a1.38 1.38 0 0 0-.09 2.31l2 .28c3.88.55 4.35 2.5 4.35 9v35.11zm72.07-33.31c0-9.62-.19-11-5.64-11.65l-1.48-.18a1.82 1.82 0 0 1 .19-2.31c4 .18 7.12.28 10.91.28h17.39c5.92 0 11.38 0 12.48-.28.56 1.57 1.11 8.23 1.48 12.3a1.82 1.82 0 0 1-2.31.19c-1.39-4.35-2.22-7.59-7-8.79a44.18 44.18 0 0 0-9-.55h-6.66c-2.78 0-2.78.18-2.78 3.7v18.5c0 2.59.28 2.59 3.05 2.59h5.36a34.37 34.37 0 0 0 7.86-.55c1.11-.37 1.76-.93 2.22-3.24l.74-3.79a1.83 1.83 0 0 1 2.41.09c0 2.22-.37 5.83-.37 9.34 0 3.33.37 6.84.37 8.88a1.83 1.83 0 0 1-2.41.09l-.83-3.6c-.37-1.67-1-3.05-2.87-3.52a30.89 30.89 0 0 0-7.12-.46h-5.36c-2.78 0-3.05.09-3.05 2.5v13c0 4.9.28 8.05 1.76 9.62 1.11 1.11 3.05 2.13 11.19 2.13 7.12 0 9.81-.37 11.84-1.38 1.66-.93 4.16-4.17 6.57-9a1.7 1.7 0 0 1 2.31.65 80.84 80.84 0 0 1-4.16 12.94c-8.32-.19-16.56-.28-24.79-.28h-8.33c-4 0-7.12.09-12.58.28a1.81 1.81 0 0 1-.18-2.31l3.05-.27c5.27-.47 5.73-1.85 5.73-11.56V99.5zm67.33 1.39a54.66 54.66 0 0 1 2.22-5.46h.2a62 62 0 0 1 2.12 5.83l5 15.08c.83 2.5.65 2.87-2 2.87H295.7c-2.59 0-2.68-.09-1.94-2.22zm16.56 36.9a19 19 0 0 1 1.2 4.9c0 .92-1.29 1.48-3.24 1.67l-2.68.27a1.55 1.55 0 0 0 .18 2.31c2.68-.1 6.2-.28 10.63-.28 4.16 0 7.4.09 11.19.28a1.81 1.81 0 0 0 0-2.31l-2.49-.27c-4-.47-5.18-1.85-7.87-9.81l-12.65-37.17c-1.39-4.07-2.87-8.32-4.07-12.39a1.31 1.31 0 0 0-1.39-.83 10.35 10.35 0 0 1-4.81 3.51c.27 1.48-.28 3.24-1.57 6.57l-9.43 25c-3.89 10.36-6.48 16.37-8.14 20.62-1.29 3.33-3.33 4.35-5.55 4.53l-3.05.27a1.82 1.82 0 0 0 .18 2.31c2.5-.1 5.83-.28 8.88-.28 4.34.09 7.21.09 9.62.28a1.49 1.49 0 0 0 .19-2.31l-3.06-.27c-2.22-.19-2.68-.74-2.68-1.85s.65-3.51 2-7.68l3.24-9.71c.65-1.94 1.2-2.22 3.51-2.22h14c2.77 0 3.15.28 3.79 2.31zm44.15-27.19a21.58 21.58 0 0 1 1.48 7.49 1.61 1.61 0 0 1-2.22.28c-1.57-4.07-4.35-6.75-8.14-6.75-3.61 0-5.92 2.31-5.92 5.64 0 3.79 3.88 5.83 7.12 7.68 4.9 2.78 9.43 5.92 9.43 12.48 0 7-6.47 10.55-13.32 10.55-4.34 0-7.59-.93-9.9-2.78a27.52 27.52 0 0 1-1.11-9.34 1.57 1.57 0 0 1 2.13-.09c1.57 5.08 4.54 9.53 9.8 9.53 3.33 0 6.2-1.94 6.2-5.92 0-4.26-3.7-6.57-7.12-8.51-5.36-3.05-9.16-6.29-9.16-11.38 0-6.75 5.55-10.54 12.58-10.54 3.86 0 7.31.92 8.15 1.66z"/><path class="cls-1" d="M212.48.29c-.77 1.66 1.15 1.66 1.79 2.43a1.57 1.57 0 0 0-.64 1.28l1.28 1.15c2.43-1 .13-2.3 0-3.71-.38-.26-.64-.77-1.28-.51V.29c1 .64 2.3.51 3.07 1.79l.64-.64-.64.64 1.3 1.28c.64-.9 1.92-1.41 1.79-2.43 1.15 1.15 2.94.38 4.35.51l.64-.51c0 1.28-.38 2.81 1.15 3.58.38-.26.64-.77 1.28-.51.64 1.15 1.66-.26 2.43-.64l-1.15-1.28.51-.64 1.28 1.92c2-.13 2-1.92 3.71-3.07l1.15 1.15.64-.51c.77 2.3 3.2.38 4.35 1.79a1.58 1.58 0 0 0 .64-1.28c-.51-1-1.66-.38-2.56-.51l3.07.51-3.07 3.07c1.15 1.79 2.3-.51 3.71 0 .89-3.45 3.71 1.79 5-1.15l-2.56-1.28c.64.26.9-.26 1.28-.64l1.79 1.92c.38-.38.9-.64.64-1.28a8.37 8.37 0 0 0 4.35 0V4c-.64-.26-.9.26-1.28.51l1.28 1.28c.38-.77 1.15-.64 1.79-.64l-.64.64c.77.64 1.41 1.66 2.56 1.28l.51-.64c-.38-.64-1.41-1-1.15-1.92 2.43 2.3 3.32 1.15 5.5-.51 2.17.77 4.73 2.81 6.78 2.43.9-.13 1.41 1 2.43.64a1.57 1.57 0 0 0 .64-1.28c-.26.64.26.9.64 1.28.38-1.15 1.54-.38 2.43-.64 1.41.38 3.33-.77 4.86-.64 1.15 1.28 3.07 3.33 5.5 2.43l-1.15 2.43.64-.51c-.51-1.15-1.66-.38-2.56-.64l-.51.64c1 .9 1.92 2.43 3.58 1.79.51-.77 1.92-1.79.64-2.43a1.3 1.3 0 0 0 1.28-.64l-.64-.64c.77.89 3.2.51 2.43 2.43l-.64.64c4.73 1.41 8.19 0 12.92 1.28-.25 2.3 2.43.38 3.07 1.79l3.07 3.71c2.94-.64 6.14 1.28 9.85.64-.64-.26-.9.26-1.28.64.38.77 1.15.51 1.92.51-.26.64.25.9.51 1.28 3.07-2.43 2.81 2.94 5.63 3.07 1.41.26 2.82 2.3 4.22.64a1.58 1.58 0 0 0 1.28.64l.64-.64-1.92 1.79c.77 1.92 2.82.64 3.71 1.92.13-1.41 2-2.69 3.07-1.28a1.3 1.3 0 0 1 1.28.64l-.64.64 1.15 1.15c.77-1.41 1.66.13 2.56 0 0 .77-.25 1.53.51 1.92h1.28c-.13 2.3 2.56.26 3.07 2.43-1.66-.77-1.66 1.15-2.43 1.79.38 1.15 1.66.38 2.43.64l.64-.64-.64-.64c.64 1.54 1.66-.13 2.43 0l-2.43 1.28c3.07-.9 2.69 4.35 5.5 1.79l5 3.07-.64.64c5.63-1.15 2.94 6.14 8.57 5 .64.38 1 1.41 1.79 1.15-1.41 1-3.58 3.07-6.14 3.07 1.28 1.54-.9-1.41-1.79-1.15 1.41-1 .13-3.07-1.28-3.07-5.25 2.43-5.88-5.88-11-5.63 0-.64.13-1.41-.64-1.79-2.3 1.92-3.84-2-6.14-2.43a1.3 1.3 0 0 0 1.28-.64 6.58 6.58 0 0 0-2.43-4.35c-.9.26-2-.51-2.56.64-.13.9.9 1.28 1.28 1.92a14.79 14.79 0 0 1-6.78-4.35h-1.15c1.15 1-1.92-3.07-2.56 0-6.65-4.73-15.61-7.29-23.92-10.49h-1.83l1.2-1.16c-.38-1.15-1.54-.38-2.43-.64l.64-.64-1.28-1.15c-.77.38-.51 1.15-.51 1.79-1.79.9-.9-1.79-2.56-3.07L291 16.28l.64-.64c-1.15-1.92-1.92.77-3.07.64-2.43.64-3.45-2.3-6.14-1.28l.64-.64c-1-2.3-2.43-.38-3.71 0l3.07-2.43c-1.92-1.53-5.25.64-6.78-1.79-.77.64-.77 1.79-1.79 2.43.38.26.64.77 1.15.64l.64-.64a1 1 0 0 1-.64 1.15l-2.43-2.43-.64.64c-.38-.26-.64-.77-1.15-.64-.38.38-.9.64-.64 1.28-1.66-3.2-4.09 1-6.14-1.28-2.81.13-5.12-1-7.93-.64-3.84-.13-7.67-2-11.13-1.15a1.22 1.22 0 0 0-1.15-.64l-.64.64c-1.66-.38-.77-1.66-1.92-2.43-.38.77-1.15.51-1.79.51-1-2.3-2.43-.13-3.71 0-1.15 3.07-4.48-.51-6.14.64-3.84-2.56-6.14 2.3-10.36.64L218 7.07c-1.92 3.45-4.09-1.53-6.14.51l1.28 1.28L210 6.43l-1.28 1.79c0 1.53-.13-.64.64-.64-.64-1.41-1.66.26-2.43 0l.51-.51c-.38-.77-1.15-.64-1.79-.64l-1.28 2.43C203 6.68 200.83 6 198.28 6.43c-.26.38-.77.64-.51 1.15.38 1.15 1.53.51 2.43.64-1 .77-2.43.64-3.71.64l-.64-.64.64-.64c-.38-.77-1.15-.51-1.79-.51-2.3 7.68-12.79 2.94-18.42 6.14-2.56-1.92-5 3.58-7.42 0-2.69-.77-4.48 4.09-6.78.51-.77.38-.64 1.15-.64 1.92.26-.64-.26-.9-.51-1.28-.9-.26-1.28.9-1.92 1.28a1.22 1.22 0 0 0-1.15-.64l-1.92 1.79c.77.38.64 1.15.64 1.92a1.3 1.3 0 0 0-1.28-.64c-.26 1.28-.38-1-1.15-1.79-.64-.26-.9.26-1.28.51.77.38.64 1.15.64 1.92 0-.77.13-1.54-.64-1.92-.64.77-1.54 1.41-1.15 2.56l.51.51c-1.28.77-2.94-1.92-3.07.64l.64.64-.64.64a4.27 4.27 0 0 0-3.58-1.92c-1.28.64.13 1.79.51 2.56a5.39 5.39 0 0 0-6.14 0l.64.51c-.9-.13-1.15.9-1.79 1.28l.64.64c-.77 0-1.53-.13-1.92.64-2.94-.51-4.48 4.09-7.93 2.43-.64-.26-.9.26-1.28.64v1.15c-1.92-.13-3.2-2-4.86 0 .9 2.3-1.41 2.17-2.43 3.07l.51-.64-.53-.51c.51.13.77-.38 1.15-.64.26-.64-.26-.9-.64-1.28-1.41-.13-2.43.64-3.58 1.28a1.34 1.34 0 0 0 1.15.64c.64 2.3-.9 2.69-2.43 3.58l-.65-.51-.64.51a1 1 0 0 0-1.15-.51c-.38.38-.89.64-.64 1.15l1.28 1.28c-3.33-.77-4.6 3.45-8.06 4.22-4.22.38-5.63 6.14-11 5L97 47.49c1.66 0-.64.26-.51-.51l-2.56 1.79-.51-.64-2.56 2.43c.51 1.15 1.66.51 2.56.64-.38.77-1.15.64-1.92.64l-.64-.64c0 1.79-2 1.66-3.07 2.43l.64.64c-.64 0-1.41-.13-1.79.64v1.28C83.28 58.11 81.23 59 78 61l-.64 2.43-.64-.64-2.43 3.07a1.23 1.23 0 0 0-.64-1.15c-.9-.26-1.28.77-1.79 1.15-.26.64.26.9.51 1.28-1.28 0-2.94.26-3.07 1.79v1.97c-1.41.51-2.43-1.66-3.58 0 .51.38.9 1.41 1.79 1.15L65.75 74c-.64-.38-1-1.54-1.92-1.28s-.51 1.15-.64 1.92l.64.51c-1.15-.38-1.66.64-2.43 1.28-.26.64.26.9.64 1.28l.64-.71c-2.56 1.54-5.12 1.92-6.14 4.22-1.79.38-2.69 2.81-4.35 3.07l.64.71c1.15.26-1.66-.51-1.92.64l.64 1.79c-.64 1.79-3.33 4.22-5.5 5l-.64-.64a1.57 1.57 0 0 0-.64 1.21c.38.26.64.77 1.28.51l-.64.64-.64-.64c-2.69 1.66-3.07 8.31-7.29 6.78-1.15 1.41.9 3.45-1.28 4.35-.51 1.15-2.69 0-2.43 1.79.38.38.64.9 1.28.64-3.07.13-3.58 3.58-5 5.5 1.28.64-.13 1.79-.64 2.43l-1.15 1.28c-.38-.77-1.15-.64-1.92-.64-.26.38-.77.64-.51 1.28.51.38.9 1.41 1.79 1.15-2.69.64-2.43 4.22-5.5 3.71-.26.9.77 1.28 1.15 1.92h.64c-.26.38-.77.64-.64 1.15-1.54.9-2.43-1.79-3.58 0l1.15 2.43c.38-.77 1.15-.51 1.92-.51-3.2.77-1.15 5.37-4.35 6.14l.64.51c-4 1.41.89 4-2.43 5.63 1.15 2.3-2.17 4.22-2.56 6.65-2.81 4-2 9.47-3.07 14.2l-1.79 1.15 1.28 1.28c-1.41 4.86 0 8.57-1.28 13.56-.64 1.41-3.33-.51-3.07 1.79.89 1.15 2.43.38 3.71.64-1.28 6.65 3.33 12.54 4.22 19.06 1.53 2.94 4.73 6.91 4.35 10.36 2.56 1.54 2.3 5.88 4.86 7.42 6.65 7 13.82 14.33 21.49 20.21 2 0 4.73 2.17 6.78 3.71 9 1 16.37 7.55 24.56 8.57.38-.77 1.15-.51 1.92-.64 1 .9.26 2.43 1.79 3.07 2 .13 1.15-2.94 3.71-1.79-.26.64.26.9.64 1.28l1.15-1.28c10.87 1.28 24 2.69 33.77 1.28 3.33 1.41 7.29-2.81 10.49 0l.64-.64c1.92 2.69 2.81-2.81 4.86 0l4.86-1.28c-.77 2.56 2.3 1.28 3.07 2.43l.64-.51-.64-.57.64.64 1.92-1.92-1.28-1.15c3.33-.26 7-1 9.85-.64.13-2.43 3.2-.38 4.22-1.92l1.28 1.28a1.57 1.57 0 0 0 .64-1.28h1.15a1.57 1.57 0 0 0 .64 1.28c2.3-2.43 2.69.13 5-2.43 2.69.77 3.45-3.33 7.29-1.92l1.28 1.28c.38-1 1.66-1.66 1.15-3.07 2.81.64 4.22-3.71 6.78-1.79l.64-.64-.64-.64c1.79-.51 1.92.64 2.43 1.79-1.54-.64-1.66 1.28-2.43 1.92.64.38 1 1.41 1.92 1.15s.51-1.15.51-1.79h1.92c0 .64-.13 1.41.64 1.79.51-1.15 2.69 0 2.43-1.79.77.25 1.92-.51 2.43.64l1.28-1.28c-1.41-1.41-4.86.64-5-2.43.77 0 1.54.13 1.92-.64-.51-1.15-1.66-.38-2.56-.64l.64-.51c-.9-1.66-5.37.64-6.14-1.92-.64-.38-.89-1.41-1.79-1.15a1.58 1.58 0 0 0 .64-1.28l-1.28-1.28-1.79 1.92c2 0 .64 3.07 3.07 3.07-.77 0-1.54-.13-1.92.64 1.28-1.28-.13-2-.64-3.07-2.69-.13 1.92-1.92 1.28-3.71.89.13 1.79-1.41 2.43 0l.64-.64c.64 1.41 1.79.64 3.07 0h.64l-1.28 1.28c1.28 2 2.43-1.53 3.71.51l.64-.51.64.51c1.54-1.54 3.2.51 4.86.64 2.17-1.41 4.48 2 6.78-.64.26 3.33 5.37-.13 7.29.64l1.92 3.07c.38-.77 1.15-.51 1.79-.64 1.15 1.28 4.09 3.45 1.28 4.35l-2.43 1.28c.38.77 1.15.51 1.79.51a3.52 3.52 0 0 1-2.43 2.56l.64-.64c-1.41-3.2-2.56 1.15-4.35.64-.26.51.26.77.64 1.15.64 0 1.41.13 1.79-.64l.64.64c-1.15-.38-1.79.64-2.43 1.28-.26.9.77 1.15 1.15 1.79-5.5 0 0 5.5-5.5 5.5-1.28 3.45-5.37 4.09-6.78 7.42l-.51.64-1.28-1.28.64-.64c-.38-.25-.64-.77-1.28-.51l-1.15 1.15.51.64c-1 .26-2.43-.51-3.07.64 3.58 1.66-1.66 1.79.64 3.71-.13 1.54-2 2.43-1.79 4.22-1.28-.13-2.43-2.17-3.71-.64a1.78 1.78 0 0 1 .64 1.28c-1.54 1.28.38 0 0-.64l-1.26-1.14-1.79 1.79a2.86 2.86 0 0 1 1.15 3.07l-.51.64a1.42 1.42 0 0 0-1.28-.64l-.64.64c4.35 2.81-1 5.12-2.43 7.29-1.66-.51-1.66-1.15-3.07-2.43.26-.38.77-.64.64-1.15-.38-.77-1.15-.64-1.92-.64.26-.64-.26-.9-.51-1.28H175c-1.28 1.28 1.54-1.15.64-2.43a1.22 1.22 0 0 0 1.15.64c.77-.38.64-1.15.64-1.92a1.3 1.3 0 0 0 .64 1.28c1.92.13 1.15-2.56 3.07-2.43.13-1.54-1.66-1.28-2.43-1.92-.26-2.69 2.56-1.66 3.71-3.58l-.64-.64.64-.64-.64-.64c1.79-3.45 6.14-3.2 9.21-4.86-.64-1-2.56-1.54-1.92-3.07.64-.25.9.26 1.28.64l1.79-2.56-.51-.51c.77.25 1.15-.9 1.79-1.28V247c1.41.9 2 4.86 4.35 2.56.64-.13 1.41.13 1.79-.64.38-2.81-3.33-2.43-3.71-5a1.78 1.78 0 0 0-.64 1.28h-1.15l.64-.64-1.92-1.15 1.28-1.28c-1.54.26-2.17-3.33-3.71-1.28-.26.64.26.89.64 1.28-.38.77-1.15.64-1.92.64l-.51-.64c-.77.77-1.66 1.28-1.28 2.43.77-2-1.66-1.41-2.43-2.43-2.56.64-2.43 4.86-5 3.07l-.51.64c.64.64 1.28 1.54 2.43 1.15a1.57 1.57 0 0 0-1.28.64c.38.38.64.9 1.28.64a9 9 0 0 1-5.5.64l.51-.64c-1.15-.26-2.43-2.3-3.58-.64.77.38.51 1.15.51 1.92-.51-2-3.45-3.58-5.5-4.35l-.64.64.64.64a1.35 1.35 0 0 0-.64 1.15c1.66 2.17 5.25-.26 5.63 3.07-2.81-.64-4.22-1.15-6.14.64l.51.64-.51.64a3.46 3.46 0 0 0-4.35 0c-.26-.64.26-.9.64-1.28-.38-1.54-.26-3.2-1.92-4.35l-.51.64a1.77 1.77 0 0 0-1.28-.64c.51-1.15 2.69 0 2.43-1.79-1.53.13-3.07-1.41-4.86 0l-.64.64a1.58 1.58 0 0 0 1.28.64c.13.51-.38.77-.64 1.15.38.77 1.15.64 1.79.64-1-.26-2.43.51-3.07-.64l-1.79 1.92c.38.77 1.15.51 1.79.51.26.89-.77 1.28-1.15 1.92l1.79 1.15c.26-.13-2.43-1.79-4.35-1.15l-.51.64 1.15 1.15c-3.2-.9-5.76 1.92-8.57 0l-2.43 1.92a1.58 1.58 0 0 0-.64-1.28l-1.28 3.07c-.9.13-1.28-1-2.43-.64.38-1.15 1.79-2 1.28-3.71l-.64-.51a1.12 1.12 0 0 0-.64 1.15l-.64-.64c-.26.38-.77.77-.51 1.28l.51.64-1.15-2.43a4.31 4.31 0 0 0-2.43 1.15c2 0 .64 3.2 3.07 3.07l-1.92.64c1.41-.64-.13-1.53 0-2.43l-1.15-1.28c.26.64 1.41-3.33 3.07-3.07-.38.38-.9.64-.64 1.28a1 1 0 0 0 1.79 0l1.92-1.92-1.92-1.79c-.51 1.92-7.67-1.41-4.86 3.07v1.28c-.77 0-1.54-.26-1.92.51.38.38.9.77.64 1.28-3.58 2.94-7.42-6-9.85.64-1.28-.77-3.45.64-4.86-1.28-.77 1.28-3.2-.26-3.07 1.92-.38-.77-1.15-.64-1.79-.64l-.64.64a1.35 1.35 0 0 1 .64 1.15c-1.28-.9 0-3.84-2.56-3.07a1 1 0 0 0-.51-1.15c-.77 0-1.53-.26-1.92.51l.64.64c-1.53 1.15-4.35 2.3-6.14 1.92-.38 1.54-1.54.64-2.43 1.79-1.92-1.66-5.63 1.15-6.78-2.43a1.58 1.58 0 0 1-1.28.64l-.51-.64-.64.64-1.28-1.92-.64.64c.26-.51-.26-.9-.51-1.28-2.3 3.58-4.22-1.28-6.78-.51-2.43-2.43-4.35-.26-6.78-2.56-1.92.64-2.3-2.17-4.35-1.15-1.41 1.28.51 0 0-.64a12.89 12.89 0 0 0-5.5-1.28c-1.79-1.15-4.6-2.43-6.78-4.22-5.76 2.94-9.47-4-14.71-5l.66.7c.38-.64 1.54-.9 1.28-1.79-1.28-1.15-3.33-.38-5-.64-1.28-1.28-2.69-2.3-3.71-4.35l-1.8 1.31c-.77-3.71-3.07-5.5-5.5-7.93-1.66 0-3.71 2.69-5 0 2-1 .51-1.92 0-3.07-3.2.38-1.54-3.45-4.22-4.35l.64-1.79c-1.54-.77-3.71-.9-3.71-3.07l-.64.51c-.89 0-.51-2.69-2.43-1.79l1.15-1.28-2.43-2.43 3.08-1.8c-1.15-.64-2.17-1.41-3.71-1.28.9-.64 2.56-.26 2.56-1.79-.77.13-3.33-.51-4.35.64 1-1.54 3.33-2.43 3.07-4.35.51.25.9-.26 1.28-.64-1.79-2.43-2.81 2.17-4.35 0-.38.38-.64.89-1.28.64 2-1.28-1.41-2.43.64-3.71-.38-1.15-1.66-.38-2.43-.64l-.64.64c0-.9 2.81-.51 1.92-2.43a1.42 1.42 0 0 0-1.28-.64l-.64.64a1.23 1.23 0 0 0-1.15-.64 1 1 0 0 1 .51-1.15 1 1 0 0 0-1.15-.64c-.26-.64.26-.9.64-1.28-.51-1.15-1.66-.38-2.56-.64-1-1.54 2.43-3.33-.51-3.58l2.43-2.56c.13-2.56-4.48-1.66-2.43-3.07 1.15 1.28 1.92-.13 3.07-.51-.38-.38-.77-.9-1.28-.64l1.79-1.28c-.38-1.15-1.53-.38-2.43-.64l-.64.64c-.13-.77.51-2-.51-2.43H0l1.79-1.79-.51-.64c.38-.64 1.41-1 1.15-1.92s-1.15-.51-1.79-.51c.89.26 1.15-.9 1.79-1.28l-.64-.64.64.64c1.41-.64-.13-1.53 0-2.43l3.07-1.28c-.38-1.15-1.66-.38-2.43-.64 0-1 1.28-1.54 1.79-2.43.77 0 1.54.13 1.92-.64-1.66 0-1.41-2.17-2.43-2.43.38.77 1.15.64 1.79.64l.64-.64-1.28-1.17c1 1.54 2-.51 3.07-.64l-1.79-1.92a1 1 0 0 0 1.15-.51c-.38-.77-1.15-.64-1.79-.64-2-2.17 1.15-2.94-2.43-2.43v-1.92c.64.64 1.28 1.66 2.43 1.28.38-1.28 2-2.69 1.28-3.71-.9-.26-1.28.77-1.92 1.28l1.92-3.07.51.51a1 1 0 0 0 .64-1.15l-1.15-1.28c.77-.13 1.92.51 2.43-.64-.77-2.3-1.41-2.81.64-4.22.38-1.15 1.53-.38 2.43-.64-.9.64-2.56.26-2.43 1.79.64-.38 3.58 1 4.22-1.15l-2.43-3.07a1.3 1.3 0 0 0 .64-1.28l-.64-.64-1.79 1.92c-.26.51 1.41-1.79 1.15-3.07l-.64-.64.64-.64-.64-.64c.64.26.9-.26 1.28-.51v-1.28c.9-.13 1.79 1.41 2.43 0l-.64-.64c.64.26.9-.26 1.28-.64-.38-.77-1.15-.51-1.79-.51 1.92.51 3.2-.9 4.86-1.28.26-3.84-5.12.26-4.35-3.71l3.07 1.92c.51-1.28 2-2.17 0-3.07H16c1.41-.13 2.94.26 3.71-1.28-2-1.28 1.41-2.43-.64-3.71l1.15-1.15-.51-.64c1.92.13 1-2.56 3.07-2.43l-1.28-1.28.64-.64-.64-.64c2.43.38 0-2.81 2.43-2.43.89-1.66.64-4.35 3.07-4.86l.64.64a1.3 1.3 0 0 0 .64-1.28l-.64-.64c1.41-.51 2.56 1.66 3.71 0l-1.28-1.15c-.9 0 2.94.26 1.92-1.92-.38-.77-1.15-.51-1.92-.64.9-.13 2 .64 2.43-.51v-.64a4.7 4.7 0 0 0 2.56 1.15c1-.51.38-2 .51-3.07.9.26 1.28-.77 1.92-1.15-.38-.38-.9-.64-.64-1.28l.64.64c1-1.41 4.22-1.92 3.07-4.35h-.65c1.28-3.33 3.71 1.54 4.86-1.79-1.15-.51 0-2.69-1.79-2.43a1.3 1.3 0 0 1 1.28-.64c.64 1.28 1.66-.13 2.43-.64a1.22 1.22 0 0 0-.64-1.15l1.28-1.28-.64-.64c1.15-1.79 3.84-1.15 4.22-3.71 1.79.51 3.33 2 5 0l-1.28-1.79a1.3 1.3 0 0 0 1.27.67l1.15-1.28c-.38-.77-1.15-.51-1.79-.64a22.11 22.11 0 0 0 7.93-6.14c-1.15-.64 1.28-2.3 0-3.07 1.92 1.66 3.71-.38 5.63-.51a2 2 0 0 1 .51-3.07c1 .38.51 2 1.92 1.79l.64-.64-.64-.64c1.79.64 2.56-1.92 3.07-2.43.38.77 1.15.64 1.79.64.77-.38.64-1.15.64-1.79l-.64-.64c1.66 2 2.56-1.28 4.35-.64-.13-3.36 2.31-2.94 4.22-4.94l-1.15-1.28c.64-.77 2.56-.77 1.79-2.43l-.64-.64c.89-.64 2.56-.26 2.56-1.79 1.15.13 2.43 2.17 3.58.51l-1.15-1.15c.26-1.28 3.84-2 6.14-4.35-.26.64.26.9.64 1.28 2.56.13 2.3-2.56 4.86-2.43l-.64-.64c1.79 0 5.5 1.15 6.78-1.92-2.3-1.41 1.66-1.92.64-3.58l.64.51a1 1 0 0 0 .51-1.15c.89-.13 1.79 1.41 2.56 0v-.59c2.69-.38 4.09 1 6.14-1.28l-1.28-1.15a1.42 1.42 0 0 0 1.28-.64c-.26-.77.51-2-.64-2.43-.77.13 1.79-1 3.07-.64 1 .9.38 2.43 1.79 3.07a3.8 3.8 0 0 0-2.43 1.28c.38.77 1.15.51 1.79.51a1.57 1.57 0 0 0 .64 1.28c.77-2.43 3.84-3.84 1.28-6.14h-1.28c-.9-1.41 1.92-2 0-3.07L121 22.42c5.24-3.2 11.77-3.58 17.14-6.78 1.41.26 2.81 2.17 4.35.64l.51.51c.77-.38.64-1.15.64-1.79l-.64-.64-.5.64c-.26-.51.26-.9.51-1.28l1.28 2.56 1.79-1.92a1.57 1.57 0 0 0 .64 1.28c1.92.26.64-1.92 1.92-2.43.64.77 1.79.77 2.43 1.79.64-.38.9-1.41 1.79-1.28l.64.64c.38-.64 1.79-1.79.64-2.43 1.92 0 4.09.26 5.5-1.28L159 8.86a1.3 1.3 0 0 1 1.28.64l-.64.64c.38.26.64.77 1.28.51l1.15-1.15-1.15-1.28 2.43-.64-.64.64.64.64 1.79-1.79c-1.66 1 .38 2 .64 3.07 1-1.15.26-3.58 2.43-3.71 1.15 1 3.58.51 4.35.64a1.58 1.58 0 0 0-.64-1.28c.9 0 .51 2.81 2.43 1.79.13.9-1.41 1.92 0 2.56.9.26 1.28-.89 1.92-1.28l-.64-1.79 1.15 1.15c.9-.64.77-1.79 1.92-2.43l-.64-.64.64.64c1-2 2 1.41 3.07-.64l-.64.64c1.66 1.66 4.73-4 5.5.64a1.3 1.3 0 0 0 .64-1.28c.89-.26 1.28.9 1.79 1.28.77-.38.64-1.15.64-1.92 2.69-.13 5.12 0 7.42-1.79-.26.9.77 1.28 1.15 1.79 1.41 0 2.94.38 3.71-1.15-.38-1.15-1.66-.38-2.43-.64v-.64H202a1.3 1.3 0 0 0 .64 1.28c.64 0 1.41.13 1.79-.64-.64-1.66 1.15-1.28 1.92-1.79-.26.51.26.77.64 1.15 2.16.38 2.8-3.08 5.49-1.79z"/><path class="cls-1" d="M216.7 7.07c-.51-.26-.77.26-1.15.51l-1.28-1.79zm44.9.51c-.51 1.15-1.66.51-2.43.64.38-1.15 1.53-1.79 2.43-.64zm-90.95 2.56l-.51-.64-.64.64c0 1.54.13-.64-.64-.64 1.28-.64 2.56-1.66 4.35-1.28zm97.09-.01l-.64-1.27.64.64v.63zm33.77 8.58c-.64-.26-.9.26-1.28.64l.64-2.56zm-171.29 2.43c-1.54-.51-2.17 1.28-3.71.64-.12-2.05 2.82-1.28 3.71-.64zm13.43-.64l.64.64zm210.56 23.92l1.28 1.28-1.28-1.79h.64l-.64.51zm0 4.99l-1.15-.64h1.15v.64zm13.56 4.22c-.77.77 0 2.3.64 3.07a1 1 0 0 0 1.15-.51v-.64c-1.54 1.28.26 2.69 1.28 3.71.38-.77 1.15-.64 1.79-.64.9.64 1.41 1.92 2.56 1.79l-.64.64c6.27 5.76 10 10.36 13.43 17.78-1.54 1.28.51 2.43.64 3.71-1.53 1.28.38 2.43.64 3.71a1.3 1.3 0 0 0 1.28-.64l-.64.64.64.64c-.77 0-1.54-.26-1.92.51a1.06 1.06 0 0 0 1.28 1.28h1.79c0 .64-.13 1.41.64 1.79h.67l-1.28 1.28a1.3 1.3 0 0 0 1.28.64c-.13.38-2.3 1.53-.64 2.43h1.28c-.26.64.25.9.51 1.28-.51-.13-1-1.92-2.43-1.28a2.86 2.86 0 0 0-1.15 3.07l1.79 1.28c-.51-.26-.9.26-1.28.51.38.38.77.9 1.28.64a1.57 1.57 0 0 0-.64 1.28l.64.64.64-.64c.38.77 1.15.64 1.79.64a4.76 4.76 0 0 0-2.43 1.15l.64.61c0 2.17-2.3.51-3.07 1.79a2.94 2.94 0 0 1 1.15 3.07c-.51-.13-.77.38-1.15.64-.25.89.77 1.28 1.15 1.92-.64 0-1.41-.26-1.79.51 0 1.15 1.28 1.66 1.79 2.56-.51-.26-.77.26-1.15.51-1.66 0-1 1.54-2.43 1.92l.51.64c-.51-.26-.77.26-1.15.51l.64.64c-.64 1-2.56 1.54-1.92 3.07-.64-1.15-1.66.26-2.43.64-.77 3.33-5.37 5.88-7.93 7.42s-5.24 5.12-8.7 3.07c.13-1.41-.26-2.94 1.28-3.71a7.35 7.35 0 0 0 6.14 0c-.38-.77-1.15-.64-1.79-.64.51-.51 2.56-1.15 1.79-3.07l-.64-.64c.38.38.64.9 1.28.64 0-2.56 3.71-2.3 4.22-4.86 4.73-4.61 8.83-10.36 9.21-17.27l1.28-1.15c-2-3.84-.77-10.62-3.71-14.84 3.2-5.88-5.63-5.37-3.71-11.64l-1.15-1.15-.64.51-.64-.51c1.28-.77-1.15-2.3 0-3.07-1.15-1.92-2.69 1.41-3.71-1.28 0-4-5.88-4.48-6.65-7.93-.77-2.94-3.46-2.17-4.35-5-2.81 0-1.41-4-3.07-5.5 2.3-3.33 2.81 1.28 5.5.64a1.35 1.35 0 0 0 .61 1.19zm-291.02 0c-.64.26-.9-.26-1.28-.51l-.47.51 2.43-1.15c-.43.38-.93.64-.68 1.15zm-8.57 14.84c-.38.38-.9.64-.64 1.15-.64.26-.89-.26-1.28-.64-.38.77-1.15.64-1.79.64.39-1.03 2.18-1.41 3.71-1.15zM49.76 80.11c.26.38.77.64.64 1.15l-1.92-1.79h1.92zm-3.07 3.71l.64-.64.51.64c-.38.77-1.15.51-1.79.51l-.64-1.15c.64-.26.9.25 1.28.64zM46.05 88c-1.66-2-3.33 1.54-4.86-.64h5.5z"/><path class="cls-1" d="M393.61 97.89l.51-.64v.64l-1.79-.64a1.58 1.58 0 0 1 1.28.64zm-365.98 4.86c.51 1.54-1.28 2.17-.64 3.71h-1.15c-.26-.51.26-.77.51-1.15L25.2 104c.64 0 1.41.13 1.79-.64l-.64-.64h1.28zm.64 6.78l.64.64c.64-.51-1.66.9-2.56 1.28.9 1.15 2.56.38 3.71.51-1 .26-2.43-.51-3.07.64a1.3 1.3 0 0 0 .64 1.28c-.64 0-1.41.13-1.79-.64l.51-.64c-.64-2-2.69-2.17-.51-4.22l1.16 1.15 1.92-2.43c-1.16.51-.52 1.66-.65 2.43zm-12.92 19.06l1.79-1.79.64.51-2.43 1.28zm-7.93 23.28l-.64-1.15h.64v1.15zm-2.56 24.56l.64-1.15h.64l-1.28 1.15zm1.92 8.06c-.38.38-.9.64-.64 1.15l-.64-.51c.38-.38.64-.89 1.28-.64zm-1.28 2.43l.64 1.79zm3.71 3.71c-.38 1.15-1.66.38-2.43.64.64-.64 1.66-2.05 2.43-.64zM16 209.69a1.22 1.22 0 0 1-.64 1.15l.64.64c.63 1.03-3.21-1.79 0-1.79zm155.29 15.86c.64-1 2-.38 3.07-.51a1.23 1.23 0 0 0 .64 1.15l1.28-1.15c-.13 2 3.84.64 2.43 3.58l-2.43 1.28a1.12 1.12 0 0 0 1.15.64c-.64 2.3-2.81.13-4.22 0-.9-1.92-2.81-1-4.35-1.28-.64.77-1.66 1.28-1.28 2.43-1.92.13-2.81-.38-4.86-1.79a2.93 2.93 0 0 1-3.07 1.28c-.13-2.3-.26-5.63 2.43-5.63a1.3 1.3 0 0 0 .64 1.28c.77-.25 2 .51 2.43-.64l-.64-.64h6.78zm8.57 0l-1.15-.51h1.15v.51z"/><path class="cls-1" d="M165.79 227.47c-1.28.13-1.92 1.41-3.07 1.79l1.28-1.79.51.64.64-1.28zm25.21 4.22a1.58 1.58 0 0 0-1.28.64l.64-3.07c.24.9-.53 2.05.64 2.43zM169.49 233a1.78 1.78 0 0 0-.64-1.28c1.15-.51 1.92-.77 2.43.64zm26.36 2.4c1.66 2.94 3.71-.38 6.14.64-.64 0-1.41-.13-1.79.64l1.79 1.79a1.57 1.57 0 0 1 1.28-.64l.64.64-1.28 1.28a1.3 1.3 0 0 0-.64-1.28 1 1 0 0 0-1.15 1.28v1.79c-.38-.13-1.66-2.3-2.56-.64a1.57 1.57 0 0 0 .64 1.28c-.77.26-2-.51-2.43.64 0 1.54.13-.64-.64-.64a1.22 1.22 0 0 1-1.15.64c3.07.13 2.43-3.45 4.22-5l-2.43-1.82a1.3 1.3 0 0 0-.64 1.28l-1.79-.64c-.77-1.79 1.28-2 2.43-1.92zm-6.78 2.43c.26-.51-.26-.77-.51-1.15l-.64.64-.64-1.32c1.66-.73 1.27 1.19 1.79 1.83zm22.13-.51v.51l-1.2-1.15c.56-.25.81.26 1.2.64zm-2.43 1.15l-.64.64-.64-1.28c.38.39.64.9 1.28.64zm-28.27.64c.26.64-.26.9-.64 1.28v-1.28h.64zm1.92 0a1.58 1.58 0 0 1-.64 1.28v-1.28h.64zm-.64 4.86l.63-1.79h1.16l-1.79 1.79zM207 244c-1.54-1.28-3.58 1.66-5 .64.9-1.66 3.07-1 5-1.15v.51zm-9.23 1.25v-.64l.51.64c1.15-.51.38-1.66 1.92-1.28zm-11.77 0c0 1.54.26-.64-.51-.64l-.64.64v-.64a1.22 1.22 0 0 1 1.15.64zm3.71.64c.38-.77 1.15-.64 1.92-.64a1.3 1.3 0 0 0-1.28.64l.64.64c1.41.13-1.28-.51-1.28.51-.38-.26-.64-.77-1.15-.51l.51-1.28zM176.27 247l-1.92-.51c.9-.21 1.92-.85 1.92.51zm-22.13 2a1.57 1.57 0 0 1-1.28.64l.64-1.28zm-4.98 0c-.26.38-.77.64-.51 1.15l-.65-.55c-1.15.4.64-.76 1.16-.6zm-32.5 3.67l2.43-2.56.64.64-3.07 1.92zm43.62.51a1.34 1.34 0 0 0 .64-1.15c.9 0 .64 1.66 1.15 2.43-1.41.51-2-.77-3.07-1.28 1.54-.51-.51-.89 0-1.79zm-71.89-.51l-1.15-.64h1.15v.64zm12.92 1.15c-.26 1.54-2 2.18-3.71 1.92l3.07-1.92-.67-1.15zm-10.49 0l.64-.64a1.42 1.42 0 0 1 .64 1.28l-2.43-1.28a1.34 1.34 0 0 1 1.15.64zm34.41 1.92c-.9-.13-1.79 1.41-2.43 0l1.79-1.28a1.57 1.57 0 0 0 .64 1.28zm-28.78.51l-1.92-.51c.89.38 1-1.15 1.92-.64v1.15zm91.47 6.14c-.38-.26-.64-.77-1.28-.51l-.64.51-.51-.51h2.43v.51zm-11.13 3.71v-.64h.64l-.64.64zm8.69 2.44l-.64.64-.63-1.18c.51-.23.89.28 1.27.54z"/></svg>