<svg fill="#000000"
    xmlns="http://www.w3.org/2000/svg"
    xmlns:xlink="http://www.w3.org/1999/xlink" version="1.1" x="0px" y="0px" viewBox="0 0 100 100" enable-background="new 0 0 100 100" xml:space="preserve">
    <g>
        <path d="M58.966,40.771c0.216,0.147,0.507,0.287,0.642,0.564c0.262,0.542-0.512,2.246-0.713,2.686   c-0.391,0.85-0.867,1.141-1.258,1.576c-0.5,2.357-1.305,4.407-2.561,6.006c0.146,0.775-0.063,1.639,0.146,2.217   c0.238,0.654,1.461,1.16,2.217,1.379c5.193,1.5,12.764,0.967,12.557,8.361c-0.027,0.994,0.064,0.686-0.395,1.459   c-0.222,0.373-1.336,0.873-1.92,1.183c-4.72,2.499-10.609,3.792-17.68,3.792c-7.012,0.001-12.83-1.258-17.629-3.791   c-0.607-0.32-1.629-0.719-1.92-1.133c-0.472-0.674-0.396-0.42-0.443-1.459c-0.278-6.133,4.836-6.461,9.652-7.674   c1.711-0.432,4.625-0.945,5.121-2.166c0.137-0.338,0.219-1.102,0.098-1.674c-0.071-0.341-0.594-0.939-0.886-1.43   c-0.58-0.966-1.063-1.941-1.428-3.15c-0.197-0.654-0.212-1.356-0.443-1.822c-0.157-0.318-0.329-0.561-0.618-0.886   c-0.256-0.29-0.573-0.613-0.738-0.985c-0.242-0.543-0.966-1.914-0.712-2.439c0.12-0.249,0.367-0.578,0.837-0.564   c-1.036-6.338,2.633-10.408,8.075-10.784C55.4,29.594,60.383,34.091,58.966,40.771z"></path>
        <path d="M47.541,5.336"></path>
        <path d="M87.477,49.995l-0.408-4.043c2.667-1.07,5.315-2.305,7.932-3.713c-0.489-3.381-1.825-6.622-2.809-9.9   c-2.969,0.238-5.888,0.638-8.728,1.188l-1.94-3.574c-0.604-1.218-1.649-2.137-2.456-3.221c1.655-2.334,3.2-4.802,4.624-7.392   c-2.163-2.662-5.11-4.562-7.698-6.794c-2.321,1.727-4.604,3.703-6.687,5.684l-3.573-1.94c-1.142-0.768-2.54-0.923-3.804-1.398   c0.129-2.849,0.093-5.756-0.113-8.699c-3.247-1.216-6.772-1.029-10.159-1.497c-1.019,2.621-1.862,5.418-2.536,8.293l-4.049,0.408   c-1.357,0.079-2.695,0.269-3.971,0.768c-1.422-2.446-3.015-4.85-4.771-7.193c-3.372,0.82-6.346,2.571-9.358,4.235   c0.621,2.85,1.31,5.493,2.293,8.263l-3.135,2.585c-1.034,0.875-2.161,1.655-2.945,2.779c-2.513-1.281-5.149-2.437-7.883-3.456   c-2.36,2.528-3.991,5.557-5.574,8.618c2.043,2.058,4.116,3.938,6.355,5.708l-1.208,3.883c-0.314,1.31-0.996,2.549-1.007,3.924   c-2.796,0.285-5.622,0.738-8.461,1.364c-0.542,3.42-0.542,6.831,0,10.249c2.84,0.631,5.667,1.081,8.461,1.369   c0.014,1.372,0.695,2.609,1.01,3.924l1.206,3.883c-2.24,1.766-4.31,3.648-6.355,5.708c1.585,3.058,3.214,6.087,5.574,8.615   c2.739-1.02,5.373-2.176,7.886-3.459c0.782,1.125,1.912,1.904,2.945,2.78l3.137,2.59c-0.983,2.768-1.677,5.411-2.295,8.26   c3.012,1.667,5.986,3.415,9.361,4.235c1.755-2.343,3.346-4.746,4.77-7.189c1.276,0.494,2.609,0.684,3.972,0.765l4.044,0.408   c0.674,2.875,1.521,5.672,2.541,8.293c3.384-0.468,6.907-0.283,10.157-1.496c0.206-2.945,0.242-5.853,0.112-8.699   c1.264-0.478,2.66-0.638,3.802-1.4l3.573-1.938c2.082,1.981,4.367,3.955,6.691,5.68c2.588-2.229,5.53-4.13,7.693-6.795   c-1.422-2.588-2.969-5.056-4.624-7.389c0.807-1.084,1.854-2.003,2.456-3.224l1.94-3.573c2.837,0.554,5.759,0.954,8.728,1.187   c0.981-3.275,2.317-6.516,2.809-9.897c-2.614-1.408-5.265-2.646-7.932-3.713L87.477,49.995z M62.044,75.641   c-4.911,1.856-10.375,3.344-15.71,2.183c-5.238-0.835-10.48-2.828-14.393-6.581c-4.007-3.507-7.293-8.097-8.555-13.325   c-1.638-5.094-1.638-10.74,0-15.836c1.264-5.229,4.55-9.816,8.555-13.325c3.914-3.751,9.157-5.747,14.39-6.581   c5.337-1.163,10.798,0.326,15.712,2.183c4.958,2.166,8.927,6.058,12.023,10.397c2.967,4.549,4.168,9.878,4.54,15.241   c-0.369,5.365-1.573,10.694-4.54,15.241C70.971,69.58,67.004,73.475,62.044,75.641z"></path>
    </g>
</svg>